<svg width="19" height="32" viewBox="0 0 19 32" fill="none" xmlns="http://www.w3.org/2000/svg">
<path fill-rule="evenodd" clip-rule="evenodd" d="M10.1932 4.38519V0.711111C10.1932 0.414815 10.1339 0.296296 10.0154 0.177778C9.89687 0.0592593 9.7191 0 9.48206 0C9.24502 0 9.06725 0.0592593 8.94873 0.177778C8.83021 0.296296 8.77095 0.414815 8.77095 0.711111V4.38519L8.1191 4.5037C3.73391 5.15556 0.296875 9.06667 0.296875 13.8074V22.5185C0.296875 27.8519 4.38576 32 9.48206 32C14.5784 32 18.6672 27.8519 18.6672 22.5185V13.8074C18.6672 9.06667 15.2302 5.15556 10.7858 4.5037L10.1932 4.38519ZM1.65984 13.8074C1.65984 9.3037 5.09688 5.74815 9.48206 5.74815C13.8672 5.74815 17.3043 9.3037 17.3043 13.8074V22.8148C17.3043 27.3185 13.8672 30.8741 9.48206 30.8741C5.09688 30.8741 1.65984 27.3185 1.65984 22.8148V13.8074Z" fill="#EFEFEF"/>
</svg>
