<svg width="36" height="35" viewBox="0 0 36 35" fill="none" xmlns="http://www.w3.org/2000/svg">
<rect width="35.0324" height="35" rx="17.5" fill="#F8F8F8"/>
<path d="M15.25 10H11.5C10.675 10 10 10.675 10 11.5V15.25C10 16.075 10.675 16.75 11.5 16.75H15.25C16.075 16.75 16.75 16.075 16.75 15.25V11.5C16.75 10.675 16.075 10 15.25 10ZM15.25 13.75H11.5V13H15.25V13.75ZM23.5 18.25H19.75C18.925 18.25 18.25 18.925 18.25 19.75V23.5C18.25 24.325 18.925 25 19.75 25H23.5C24.325 25 25 24.325 25 23.5V19.75C25 18.925 24.325 18.25 23.5 18.25ZM23.5 22.75H19.75V22H23.5V22.75ZM23.5 21.25H19.75V20.5H23.5V21.25ZM23.5 10H19.75C18.925 10 18.25 10.675 18.25 11.5V15.25C18.25 16.075 18.925 16.75 19.75 16.75H23.5C24.325 16.75 25 16.075 25 15.25V11.5C25 10.675 24.325 10 23.5 10ZM23.5 13.75H22V15.25H21.25V13.75H19.75V13H21.25V11.5H22V13H23.5V13.75ZM15.25 18.25H11.5C10.675 18.25 10 18.925 10 19.75V23.5C10 24.325 10.675 25 11.5 25H15.25C16.075 25 16.75 24.325 16.75 23.5V19.75C16.75 18.925 16.075 18.25 15.25 18.25ZM14.95 22.675L14.425 23.2L13.375 22.15L12.325 23.2L11.8 22.675L12.85 21.625L11.8 20.575L12.325 20.05L13.375 21.1L14.425 20.05L14.95 20.575L13.9 21.625L14.95 22.675Z" fill="#FD2016"/>
</svg>
